<svg xmlns="http://www.w3.org/2000/svg" width="26" height="26" fill="none"><path fill="#011C44" d="M13 7.25a5.75 5.75 0 1 0 0 11.5 5.75 5.75 0 0 0 0-11.5Zm0 10A4.25 4.25 0 1 1 17.25 13 4.263 4.263 0 0 1 13 17.25ZM18.5.75h-11A6.75 6.75 0 0 0 .75 7.5v11a6.75 6.75 0 0 0 6.75 6.75h11a6.75 6.75 0 0 0 6.75-6.75v-11A6.75 6.75 0 0 0 18.5.75Zm5.25 17.75a5.25 5.25 0 0 1-5.25 5.25h-11a5.25 5.25 0 0 1-5.25-5.25v-11A5.25 5.25 0 0 1 7.5 2.25h11a5.25 5.25 0 0 1 5.25 5.25v11Zm-3-12a1.25 1.25 0 1 1-2.5 0 1.25 1.25 0 0 1 2.5 0Z"/></svg>